HIERARCHY
ROOT Hips
{
  OFFSET -30.1119 54.3129 168.461
  CHANNELS 6 Xposition Yposition Zposition Zrotation Xrotation Yrotation
  JOINT RightUpLeg
  {
    OFFSET -8.9458 -8.66707 0.101652
    CHANNELS 3 Zrotation Xrotation Yrotation
    JOINT RightLeg
    {
      OFFSET 0 -44.4227 1.3727
      CHANNELS 3 Zrotation Xrotation Yrotation
      JOINT RightFoot
      {
        OFFSET 0.253549 -42.0924 -1.46059
        CHANNELS 3 Zrotation Xrotation Yrotation
        JOINT RightToes
        {
          OFFSET 0.04 -4.41509 8.4991
          CHANNELS 3 Zrotation Xrotation Yrotation
          End Site
          {
            OFFSET -0.08 -0.137448 9.77979
          }
        }
      }
    }
  }
  JOINT Spine
  {
    OFFSET 0 11.8905 0
    CHANNELS 3 Zrotation Xrotation Yrotation
    JOINT Spine1
    {
      OFFSET 0 25.6574 0.127663
      CHANNELS 3 Zrotation Xrotation Yrotation
      JOINT HEad
      {
        OFFSET 0 8.73416 0.011341
        CHANNELS 3 Zrotation Xrotation Yrotation
        End Site
        {
          OFFSET -0.29 12.7742 2.51395
        }
      }
      JOINT LeftShoulder1
      {
        OFFSET 8.99 -0.362252 -0.22
        CHANNELS 3 Zrotation Xrotation Yrotation
        JOINT LeftArm
        {
          OFFSET 10.2827 -0.00338 0.322123
          CHANNELS 3 Zrotation Xrotation Yrotation
          JOINT LeftForeArm
          {
            OFFSET 32.7669 0.099144 -1.42434
            CHANNELS 3 Zrotation Xrotation Yrotation
            JOINT LeftHand
            {
              OFFSET 27.5643 0.085362 1.02216
              CHANNELS 3 Zrotation Xrotation Yrotation
              End Site
              {
                OFFSET 16.7443 -0.6 1.50291
              }
            }
          }
        }
      }
      JOINT RightShoulder
      {
        OFFSET -8.99 -0.362252 -0.22
        CHANNELS 3 Zrotation Xrotation Yrotation
        JOINT RightArm
        {
          OFFSET -10.2827 -0.00338 0.322123
          CHANNELS 3 Zrotation Xrotation Yrotation
          JOINT RightForeArm
          {
            OFFSET -32.8971 0.099144 -1.42434
            CHANNELS 3 Zrotation Xrotation Yrotation
            JOINT RightHand
            {
              OFFSET -27.4921 0.085362 1.02216
              CHANNELS 3 Zrotation Xrotation Yrotation
              End Site
              {
                OFFSET -16.6312 -0.6 1.50291
              }
            }
          }
        }
      }
    }
  }
  JOINT LeftUpLeg
  {
    OFFSET 8.9458 -8.66707 0.101652
    CHANNELS 3 Zrotation Xrotation Yrotation
    JOINT LeftLeg
    {
      OFFSET 0 -44.4227 1.3727
      CHANNELS 3 Zrotation Xrotation Yrotation
      JOINT LeftFoot
      {
        OFFSET -0.253549 -42.0924 -1.46059
        CHANNELS 3 Zrotation Xrotation Yrotation
        JOINT LeftToes
        {
          OFFSET -0.04 -4.41509 8.4991
          CHANNELS 3 Zrotation Xrotation Yrotation
          End Site
          {
            OFFSET 0.08 -0.047448 9.77979
          }
        }
      }
    }
  }
}
MOTION
Frames:	7
Frame Time:	0.0166667
0.00000 96.00000 0.00000 0.00000 0.00000 0.00000 0.00000 0.00000 0.00000 0.00000 0.00000 0.00000 0.00000 0.00000 0.00000 0.00000 0.00000 0.00000 0.00000 0.00000 0.00000 0.00000 0.00000 0.00000 0.00000 0.00000 0.00000 0.00000 0.00000 0.00000 0.00000 0.00000 0.00000 0.00000 0.00000 0.00000 0.00000 0.00000 0.00000 0.00000 0.00000 0.00000 0.00000 0.00000 0.00000 0.00000 0.00000 0.00000 0.00000 0.00000 0.00000 0.00000 0.00000 0.00000 0.00000 0.00000 0.00000 0.00000 0.00000 0.00000 0.00000 0.00000 0.00000 
0	104.092	0	2.17443	2.34063	145.04	0.457282	1.87745	4.7235	-0.603511	8.03851	-12.7823	1.24617	-6.49688	2.08056	4.62E-02	5.34E-04	0.662642	0.125764	-2.42606	0.893697	0.289769	-4.84707	1.79489	-0.298892	17.849	20.5383	1.59E-15	-2.39E-15	0.00E+00	3.46655	-14.9188	5.73301	-1.59016	10.4462	-6.02941	-1.23049	9.98611	5.44209	1.59E-15	-2.39E-15	0.00E+00	-2.95569	-14.7273	-12.6249	2.76793	14.2991	11.699	-3.62833	10.8129	-2.64928	7.87E-01	6.55E-01	2.85164	1.06661	9.78687	-0.963966	-2.24148	-6.09233	-21.9491	1.47E-14	3.16E-14	1.27E-14
0.00693	104.092	0.006	2.17304	2.3435	145.056	0.460059	1.87626	4.72735	-0.60191	8.0402	-12.7981	1.2462	-6.49635	2.07307	4.62E-02	5.34E-04	6.63E-01	0.126185	-2.42465	0.893284	0.290571	-4.84425	1.79407	-0.287399	17.8323	20.5277	-7.95E-16	0.00E+00	-3.18E-15	3.47508	-14.8839	5.71409	-1.59143	10.4384	-6.02767	-1.20776	9.98529	5.43335	-7.95E-16	0.00E+00	-3.18E-15	-2.94579	-14.7378	-12.6365	2.77573	14.3269	11.6624	-3.58722	10.8103	-2.65572	7.75E-01	0.652139	2.85E+00	1.0782	9.79004	-0.97698	-2.22629	-6.08802	-22.0707	1.45E-14	3.18E-14	9.54E-15
0.00265	104.092	0.005	2.17392	2.35231	145.075	0.463954	1.88805	4.70912	-0.604799	8.03555	-12.7981	1.24873	-6.49595	2.08842	4.62E-02	5.34E-04	6.63E-01	0.126383	-2.42352	0.893153	0.290761	-4.84008	1.79359	-0.290595	17.8319	20.523	0.00E+00	2.39E-15	0.00E+00	3.48111	-14.8658	5.69731	-1.59165	10.4044	-6.02561	-1.17097	9.97558	5.42574	0.00E+00	2.39E-15	0.00E+00	-2.94729	-14.7457	-12.661	2.78101	14.3404	11.6346	-3.54717	10.8099	-2.66661	7.74E-01	0.656074	2.8343	1.08315	9.79137	-0.979173	-2.22341	-6.07916	-22.0989	1.47E-14	3.16E-14	1.59E-14
0.01531	104.092	0.015	2.17042	2.35352	145.092	0.473793	1.8973	4.68666	-0.609703	8.02997	-12.7917	1.25292	-6.4958	2.11629	4.62E-02	5.34E-04	6.63E-01	0.126646	-2.4225	0.893034	0.290935	-4.83805	1.79304	-0.29671	17.8353	20.5209	1.32E-31	-2.39E-15	3.18E-15	3.49839	-14.8733	5.68809	-1.59019	10.3824	-6.02408	-1.15436	9.97092	5.42128	1.32E-31	-2.39E-15	3.18E-15	-2.96262	-14.7397	-12.6834	2.7844	14.3503	11.6086	-3.50843	10.8105	-2.67789	7.75E-01	6.59E-01	2.82E+00	1.0844	9.7925	-0.973218	-2.21968	-6.07357	-21.9627	1.47E-14	3.14E-14	6.36E-15
0.01799	104.092	0.021	2.16658	2.35469	145.114	0.47873	1.89908	4.68283	-0.612719	8.02711	-12.8071	1.2503	-6.49616	2.08316	4.62E-02	5.34E-04	6.63E-01	0.12697	-2.42155	0.892953	0.291028	-4.83666	1.79254	-0.301067	17.8397	20.5217	0.00E+00	0.00E+00	-6.36E-15	3.51923	-14.8731	5.6862	-1.59014	10.3709	-6.02439	-1.17069	9.98657	5.41741	0.00E+00	0.00E+00	-6.36E-15	-2.98016	-14.7327	-12.6982	2.78555	14.3527	11.5842	-3.46128	10.811	-2.68968	0.77582	0.65211	2.79E+00	1.08462	9.79339	-0.965034	-2.22618	-6.06379	-21.8911	1.47E-14	3.18E-14	1.91E-14
0.01709	104.093	0.028	2.16325	2.35591	145.135	0.48192	1.88906	4.69384	-0.614942	8.02516	-12.8357	1.25096	-6.49657	2.07945	4.62E-02	5.34E-04	6.63E-01	0.127351	-2.42064	0.892936	0.291006	-4.83521	1.79217	-0.308753	17.8448	20.5402	7.95E-16	1.59E-15	3.18E-15	3.53338	-14.8631	5.68756	-1.57837	10.3657	-6.02852	-1.18438	10.0004	5.41424	7.95E-16	1.59E-15	3.18E-15	-2.99608	-14.7365	-12.7033	2.78225	14.3337	11.5648	-3.42302	10.8104	-2.69921	7.73E-01	6.33E-01	2.75E+00	1.08495	9.794	-0.960759	-2.23364	-6.05377	-21.9515	1.45E-14	3.16E-14	1.91E-14
